name rise34.3697peak60.0498fall86.3158.mot
datacolumns 19
datarows 15
range 10.21829400000000 10.24162800000000
endheader
time	ground_force1_vx	ground_force1_vy	ground_force1_vz	ground_force1_px	ground_force1_py	ground_force1_pz	ground_force2_vx	ground_force2_vy	ground_force2_vz	ground_force2_px	ground_force2_py	ground_force2_pz	ground_torque1_x	ground_torque1_y	ground_torque1_z	ground_torque2_x	ground_torque2_y	ground_torque2_z	
10.21829400000000	49.36826800000000	765.93225500000005	59.79779800000000	0.41472800000000	0.00000000000000	0.13594300000000	0.00000000000000	0.00000000000000	0.00000000000000	0.00000000000000	0.00000000000000	0.00000000000000	0.00000000000000	34.59327900000000	0.00000000000000	0.00000000000000	0.00000000000000	0.00000000000000	
10.21995700000000	48.60301700000000	768.69840599999998	59.89985700000000	0.41313300000000	0.00000000000000	0.13598100000000	0.00000000000000	0.00000000000000	0.00000000000000	0.00000000000000	0.00000000000000	0.00000000000000	0.00000000000000	34.68780400000000	0.00000000000000	0.00000000000000	0.00000000000000	0.00000000000000	
10.22162700000000	47.84387500000000	771.34707800000001	59.99573800000000	0.41156100000000	0.00000000000000	0.13601900000000	0.00000000000000	0.00000000000000	0.00000000000000	0.00000000000000	0.00000000000000	0.00000000000000	0.00000000000000	34.77744700000000	0.00000000000000	0.00000000000000	0.00000000000000	0.00000000000000	
10.22330600000000	47.09149400000000	773.87547700000005	60.08507400000000	0.41001400000000	0.00000000000000	0.13605600000000	0.00000000000000	0.00000000000000	0.00000000000000	0.00000000000000	0.00000000000000	0.00000000000000	0.00000000000000	34.86194000000000	0.00000000000000	0.00000000000000	0.00000000000000	0.00000000000000	
10.22496300000000	46.34644500000000	776.28091600000005	60.16745100000000	0.40849200000000	0.00000000000000	0.13609200000000	0.00000000000000	0.00000000000000	0.00000000000000	0.00000000000000	0.00000000000000	0.00000000000000	0.00000000000000	34.94099000000000	0.00000000000000	0.00000000000000	0.00000000000000	0.00000000000000	
10.22662600000000	45.60922100000000	778.56083999999998	60.24241600000000	0.40699600000000	0.00000000000000	0.13612700000000	0.00000000000000	0.00000000000000	0.00000000000000	0.00000000000000	0.00000000000000	0.00000000000000	0.00000000000000	35.01427500000000	0.00000000000000	0.00000000000000	0.00000000000000	0.00000000000000	
10.22831700000000	44.88023600000000	780.71283700000004	60.30947500000000	0.40552700000000	0.00000000000000	0.13616100000000	0.00000000000000	0.00000000000000	0.00000000000000	0.00000000000000	0.00000000000000	0.00000000000000	0.00000000000000	35.08145600000000	0.00000000000000	0.00000000000000	0.00000000000000	0.00000000000000	
10.22995900000000	44.15983400000000	782.73466199999996	60.36810900000000	0.40408600000000	0.00000000000000	0.13619300000000	0.00000000000000	0.00000000000000	0.00000000000000	0.00000000000000	0.00000000000000	0.00000000000000	0.00000000000000	35.14217500000000	0.00000000000000	0.00000000000000	0.00000000000000	0.00000000000000	
10.23163100000000	43.44828800000000	784.62424399999998	60.41776900000000	0.40267400000000	0.00000000000000	0.13622400000000	0.00000000000000	0.00000000000000	0.00000000000000	0.00000000000000	0.00000000000000	0.00000000000000	0.00000000000000	35.19606100000000	0.00000000000000	0.00000000000000	0.00000000000000	0.00000000000000	
10.23329500000000	42.74580300000000	786.37970800000005	60.45789100000000	0.40129100000000	0.00000000000000	0.13625400000000	0.00000000000000	0.00000000000000	0.00000000000000	0.00000000000000	0.00000000000000	0.00000000000000	0.00000000000000	35.24273700000000	0.00000000000000	0.00000000000000	0.00000000000000	0.00000000000000	
10.23496300000000	42.05252300000000	787.99938399999996	60.48789800000000	0.39993700000000	0.00000000000000	0.13628200000000	0.00000000000000	0.00000000000000	0.00000000000000	0.00000000000000	0.00000000000000	0.00000000000000	0.00000000000000	35.28181700000000	0.00000000000000	0.00000000000000	0.00000000000000	0.00000000000000	
10.23663100000000	41.36853100000000	789.48182399999996	60.50720600000000	0.39861300000000	0.00000000000000	0.13630900000000	0.00000000000000	0.00000000000000	0.00000000000000	0.00000000000000	0.00000000000000	0.00000000000000	0.00000000000000	35.31291800000000	0.00000000000000	0.00000000000000	0.00000000000000	0.00000000000000	
10.23829600000000	40.69385700000000	790.82581000000005	60.51523100000000	0.39731900000000	0.00000000000000	0.13633400000000	0.00000000000000	0.00000000000000	0.00000000000000	0.00000000000000	0.00000000000000	0.00000000000000	0.00000000000000	35.33565700000000	0.00000000000000	0.00000000000000	0.00000000000000	0.00000000000000	
10.23996000000000	40.02847800000000	792.03036999999995	60.51139700000000	0.39605500000000	0.00000000000000	0.13635700000000	0.00000000000000	0.00000000000000	0.00000000000000	0.00000000000000	0.00000000000000	0.00000000000000	0.00000000000000	35.34966200000000	0.00000000000000	0.00000000000000	0.00000000000000	0.00000000000000	
10.24162800000000	39.37232500000000	793.09478100000001	60.49513700000000	0.39482000000000	0.00000000000000	0.13637800000000	0.00000000000000	0.00000000000000	0.00000000000000	0.00000000000000	0.00000000000000	0.00000000000000	0.00000000000000	35.35457000000000	0.00000000000000	0.00000000000000	0.00000000000000	0.00000000000000	
